<?xml version="1.0" encoding="UTF-8"?><svg xmlns="http://www.w3.org/2000/svg" xmlns:xlink="http://www.w3.org/1999/xlink" viewBox="0 0 612.68 258.35"><defs><style>.cls-1{fill:url(#linear-gradient);}.cls-2{fill:#fff;}.cls-3{fill:#03516b;}.cls-4{fill:url(#linear-gradient-2);}.cls-5{isolation:isolate;}.cls-6{opacity:.38;}.cls-6,.cls-7{fill:#231f20;mix-blend-mode:overlay;}.cls-7{opacity:.39;}.cls-8{mix-blend-mode:soft-light;opacity:.67;}</style><linearGradient id="linear-gradient" x1="572.77" y1="64.3" x2="-19.55" y2="192.69" gradientTransform="translate(0 -3.16) rotate(.57) skewX(.57)" gradientUnits="userSpaceOnUse"><stop offset=".19" stop-color="#7dd1e9"/><stop offset=".26" stop-color="#90d5ca"/><stop offset=".4" stop-color="#c0e07b"/><stop offset=".57" stop-color="#fdee19"/><stop offset=".79" stop-color="#f7a81f"/><stop offset="1" stop-color="#f36d25"/></linearGradient><linearGradient id="linear-gradient-2" x1="244.12" y1="178.76" x2="414.48" y2="47.26" xlink:href="#linear-gradient"/></defs><g class="cls-5"><g id="Layer_1"><path class="cls-3" d="m37.87,258.34c-15.24-.15-24.09-6.59-28.82-11.97-5.92-6.72-9.05-15.66-9.05-25.86s3.32-21.19,9.11-29.96c5.97-9.04,14.16-15.34,23.3-17.97-1.91-1.48-3.65-3.21-5.17-5.2-4.67-6.07-7.14-14.03-7.14-23.02s2.03-17.85,6.04-26.73c4.08-9.05,10.04-17.55,17.7-25.27,16.83-16.95,40.88-28.97,69.55-34.78,12.33-2.5,21.38-3.82,29.36-4.99,6.32-.92,11.78-1.72,17.74-2.93,8.53-1.73,14.19-3.68,18.73-5.24,2.96-1.02,5.52-1.9,8.07-2.42,1.79-.36,3.42-.53,4.98-.52,3.1.03,8.87.92,12.59,6.51,2.56,3.85,2.86,8.11,2.86,10.98,0,10.47-3.84,20.83-10.81,29.18-3.45,4.14-7.56,7.66-12.2,10.51,3.09.62,5.41,1.69,7.13,2.71.22-.22.43-.44.63-.64,3-3.06,7.53-7.69,15.81-9.37,1.51-.31,2.98-.45,4.36-.44,7.6.08,15.26,5.29,15.26,16.77,0,1.9-.2,3.73-.55,5.53,4.26-6.98,9.52-13.63,15.73-19.91,11.87-11.99,28.73-18.22,48.76-18.03,7.07.07,13.25.94,17.55,1.76,4.48-11.37,10.33-22,17.4-31.62,9.16-12.45,20.38-23.2,33.37-31.96C373.77,4.3,385.45-.1,395.91,0s18.59,4.43,24.76,12.54c6.02,7.92,9.62,19.16,10.7,33.42,2.13-1.15,4.48-1.97,7.12-2.51,2.01-.41,3.82-.6,5.55-.58,4.27.04,7.33,1.36,9.46,2.93,7.22-6.14,14.05-8.24,19.5-9.35,2.84-.57,5.63-.85,8.3-.83,9.32.09,17.49,3.94,23,10.84,4.43,5.55,7.06,12.98,7.67,21.65,1.38-2.35,2.79-4.78,4.22-7.27,5.7-9.86,11.59-20.05,17.95-28.34,8.39-10.93,16.32-16.83,24.94-18.58,2.74-.56,5.41-.82,7.92-.8,5,.05,12.09,1.29,17.5,6.92,3.69,3.84,5.66,8.89,5.57,14.23.03,4.07-1.58,7.86-4.81,11.25-1.86,1.96-3.97,3.52-6.01,5.02-.84.62-2.04,1.5-2.95,2.27.65,1.24,1.47,2.71,2.15,3.93,1.37,2.46,2.94,5.28,4.45,8.31.35-.55.7-1.14,1.06-1.75,2.83-4.82,7.76-7.66,13.19-7.61s10.31,2.81,13.18,7.2c2.6,3.98,3.06,8.9,1.23,13.14l-.03.06c-.24.55-.5,1.15-.79,1.81-3.31,7.63-9.48,21.83-19.75,35.24-13.16,17.19-28.94,27.75-46.9,31.39-4.07.83-8,1.23-11.66,1.19h0c-13.11-.13-21.03-5.75-25.35-10.44-1.83-1.98-3.41-4.21-4.73-6.65-2.98,1.52-6.09,2.72-9.33,3.6-11.18,16.84-25.61,28.04-40.09,30.97-2.64.53-5.2.79-7.61.77-3.62-.04-8.27-.73-12.56-3.32-1.92,9.22-4.03,18.11-6.58,25.74-3.51,10.52-9.7,24.8-22.79,27.46-2.44.5-4.76.74-6.89.71-8.24-.08-12.93-3.93-15.42-7.15-2.93-3.79-4.42-8.82-4.42-14.96,0-6.51,1.84-14.39,4.89-23.93-8.23,7.55-17.1,12.84-26.56,15.82-6.15,1.94-11.95,2.89-17.24,2.84h0c-12.2-.12-22.1-5.53-28.36-15.36-1.45,1.74-3.02,3.53-4.69,5.33-6.32,6.81-12.88,12.41-19.5,16.65-8.75,5.61-17.68,8.88-26.52,9.73-2.26.22-4.47.31-6.57.29-12.9-.13-21.27-4.64-26.65-9.89-6.78,10.05-16.3,19.94-29.73,22.66-2.17.44-4.3.65-6.33.63h0c-6.95-.07-12.92-2.77-17.26-7.8-.4-.46-.78-.94-1.15-1.44-7.16,9.03-16.55,16.98-28.25,19.35-2.17.44-4.32.65-6.38.63-10.02-.1-20.57-5.92-24.95-20.93-5.74,10.5-12.15,19.46-19.16,26.77-11.79,12.28-25.37,20.04-40.35,23.08-4.94,1-9.66,1.49-14.03,1.44h0Zm12.97-73.64c.3.17,1.21.51,2.88.53,1.14.01,2.43-.13,3.82-.41,2.3-.47,8.43-2.33,15.82-9.59,3.11-3.06,5.99-6.65,8.56-10.67-1.31,1.34-2.7,2.61-4.17,3.8-5.76,4.65-12.6,7.88-19.76,9.33-2.72.55-5.39.82-7.95.79h0c-.19,0-.38,0-.56-.01.83,1.65,1.29,3.51,1.29,5.49,0,.37.04.61.07.74Zm116.97-33.9c-1.86,1.04-3.19,2.63-3.93,3.66-1.16,1.63-2.02,3.52-2.45,5.31,3.06-1.92,5.47-5.74,6.38-8.98Zm116.89-28c-8.88-.09-11.34.85-11.44.89-7.11,2.92-8.44,9.88-8.67,11.94-.25,2.15.28,5.32,1.75,6.98.33.38,1.22,1.38,4.1,1.41,1.3.01,2.79-.17,4.44-.56,5.29-1.22,11.57-6.99,17.68-16.25.89-1.34,1.72-2.68,2.48-3.98-3.25-.23-6.86-.41-10.34-.45Zm-192.8,8.81c.88,1.96,1.4,4.1,1.57,6.35,2.37-6.77,4.77-13.57,7.02-19.73,1.36-3.91,3.17-7.24,5.43-10-5.55,2.06-10.38,4.82-14.08,8.11-2.94,2.6-5.05,5.48-6.07,8.15l2.7-.55,3.42,7.67Zm260.25-1.42s.04,0,.08,0c1.57.02,7.71-2.54,15.01-14.08,3.96-6.26,10-18.45,13.91-30.41,2.03-6.21,3.28-11.78,3.62-16.11.33-4.32-.32-6.13-.55-6.62-.21-.06-.63-.14-1.34-.14-.39,0-.82.02-1.28.06-8.94.82-16.82,6.86-23.43,17.93-5.53,9.26-7.94,18.54-8.02,18.88l-.04.17-.03.08c-1.17,4.36-3.5,17.53-.28,26.28,1.14,3.11,2.22,3.87,2.35,3.95Zm-210.61-24.48c.98,1.57,1.86,3.63,2.2,6.25,2.26-1.88,4.59-3.57,6.98-5.08-3.29-.22-6.28-.69-9.18-1.17Zm319.64-15.76c-3.08,1.6-5.62,5.57-6.44,9.22,1.35-.83,2.69-2.14,3.86-3.8,1.3-1.85,2.15-3.79,2.59-5.42Z"/><path class="cls-1" d="m53.98,164.21c19.69-3.99,30.25-23.59,26.6-31.79-4.47.91-7.72-2.5-7.72-7.98,0-12.99,14.42-27.49,38.37-32.34,25.18-5.1,31.67,4.14,50.96.23,21.93-4.44,33.3-21.16,33.3-36.8,0-5.48-1.83-7.95-7.92-6.72-5.08,1.03-12.18,4.7-26.8,7.66-14.01,2.84-25.38,3.52-47.1,7.92-58.07,11.77-85.07,47.9-85.07,76.73,0,14.82,8.73,26.45,25.38,23.08Zm67.61-58.17c-6.09,1.23-10.56,4.78-13.2,12.42-3.45,9.43-7.31,20.57-10.76,30.4-9.75,26.75-27.21,40.23-39.8,42.78-11.57,2.35-19.29-2.18-19.29-11.12,0-1.42-1.42-2.15-3.05-1.82-16.24,3.29-27,21.92-27,38.57s11.17,31.85,39.39,26.13c25.38-5.14,47.1-26.4,62.54-66.48,7.51-19.39,13.6-38.9,20.51-61.82,2.23-7.15-.41-10.88-9.34-9.07Zm97.14,43.95c-2.5,2.05-5.32,3.46-8.53,4.11-8.93,1.81-11.16-5.86-4.26-22.08,4.47-12.68,9.75-20.05,9.75-27.76,0-4.47-1.83-7.14-7.11-6.07-9.54,1.93-10.96,9.94-17.66,11.3-5.28,1.07-4.47-6.81-20.71-3.52-34.92,7.08-52.38,53.25-52.38,81.48,0,18.07,7.11,29.22,20.91,26.42,14.42-2.92,26.6-18.59,34.72-36.68l.81-.16c-2.44,17.35,3.45,28.94,17.46,26.11,12.77-2.59,21.88-14.6,29.2-28.33-.7-1.4-1.27-2.87-1.72-4.34-2.01-6.57-1.72-13.77-.48-20.47Zm-59.69,17.73c-6.29,1.28-10.15-2-10.15-8.91,0-8.93,6.7-20.24,17.26-22.38,6.5-1.32,10.56,1.92,10.56,8.62,0,8.53-7.11,20.53-17.66,22.67Zm432.02-102.41c-4.06,6.91-8.32,12.24-14.42,13.68-2.64-12.05-13.4-26.12-13.4-29.97,0-8.12,14.82-11.73,14.62-18.19.2-6.54-5.89-12.61-18.48-10.06-17.46,3.54-31.88,36.71-46.29,59.13l-.81,1.38s0,0,0,0c-4.87,8.09-10.35,12.04-16.24,13.23,2.44-8.41,3.86-17.02,3.86-25.76,0-19.09-10.56-28.72-26.6-25.47-6.29,1.28-12.79,3.81-19.9,12.15-3.25,3.91-7.11,3.27-6.5.1.61-3.78-1.02-6.7-8.12-5.26-10.35,2.1-12.39,9.62-25.58,51.07-2.84,8.7-5.69,16.99-8.32,24.63-10.35,28.7-19.69,50.89-19.69,63.28,0,8.93,4.06,13.19,14.21,11.13,14.42-2.92,19.9-37.74,25.99-68.61,1.02-5.28,6.5-5.99,5.69-1.15-2.64,16.78,6.29,21.46,17.87,19.12,12.99-2.63,26.19-14.24,35.73-29.98l1.22-.25c8.42-1.71,15.07-5.88,20.37-11.15,1.21,15.24,11.22,27.29,33.84,22.71,37.76-7.65,54.41-49.6,60.1-62.53,1.83-4.23-5.89-8.76-9.14-3.22Zm-138.27,41.62c-7.72,1.56-10.56-2.94-10.56-8.82,0-8.93,6.7-20.24,16.65-22.26,7.92-1.6,11.17,2.61,11.17,8.5,0,8.53-7.11,20.53-17.26,22.58Zm80-16.21c-6.7,1.36-11.37-1.35-11.37-6.22,0,0,0,0,0,0,0,0,0,0,0,0,4.67-6.83,10.96-16.43,16.04-24.97,1.83-3.01,3.45-3.34,4.87-.99,2.84,4.91,4.47,9.65,4.47,14.53,0,8.32-5.08,15.85-14.01,17.66Z"/><path class="cls-4" d="m364.17,18.74c-52.67,35.54-55.28,93.16-55.28,93.16,0,0-13.76,33.79-33.45,38.34-19.69,4.55-23.96-10.91-23.01-19.21.95-8.29,5.93-16.55,14.95-20.25,9.02-3.71,38.2-.09,38.2-.09.47-9.01,5.46-25.57,5.46-25.57,0,0-38.91-11.54-62.4,12.19-29.48,29.78-26.33,60-25.86,65.22.47,5.22,1.42,30.38,32.98,27.37s55.28-44.05,55.28-44.05c0,0,.95,37.26,38.91,25.3,46.18-14.55,64.77-92.36,68.09-104.66s5.92-88.08-53.85-47.75Zm9.97,99.65c-12.77,20.2-29.26,26.12-35.92,8.02-5.13-13.93,0-32.61,0-32.61,0,0,10.26-41.76,40.46-44.55,30.2-2.78,6.12,52.28-4.54,69.15Z"/><g class="cls-8"><path class="cls-2" d="m148.26,76.91c2.54.03,5.11-.23,7.84-.79,7.94-1.61,14.53-5.32,19.05-10.73,2.71-3.25,4.57-6.98,5.46-10.86-.09.03-.18.06-.27.09-4.85,1.67-11.48,3.96-21.35,5.96-6.52,1.32-12.51,2.2-18.85,3.12-7.73,1.13-16.48,2.41-28.25,4.8-24.68,5-45.11,15.08-59.08,29.15-11.3,11.38-17.79,25.06-17.79,37.53,0,4.29.99,7.95,2.79,10.29.95,1.23,2.64,2.87,6.43,2.91,1.11.01,2.34-.12,3.64-.38,7.75-1.57,12.63-6.35,14.85-9.06,1.51-1.84,2.53-3.59,3.2-5.07-1.28-.92-2.44-2.03-3.43-3.31-2.58-3.32-3.94-7.57-3.94-12.27,0-9.54,4.85-19.1,13.64-26.9,8.43-7.48,19.82-12.84,32.94-15.5,6.19-1.25,11.88-1.84,17.42-1.78,6.13.06,11.08.89,15.46,1.62,3.66.61,6.81,1.14,10.24,1.17Z"/><path class="cls-2" d="m29.82,224.1c.85-1.31,1.94-2.39,3.25-3.24.44-.41.86-.84,1.27-1.29,1.02-1.55,1.88-3.19,2.65-4.88,1.19-2.92,2.33-5.86,3.59-8.76,1-2.29,2.14-4.53,3.62-6.54.7-.96,1.42-1.93,2.17-2.88-5.9-.34-11.04-2.29-14.94-5.68-1.7-1.48-3.11-3.2-4.23-5.11-2.42,1.71-4.66,4.07-6.57,6.98-3.63,5.5-5.71,12.29-5.71,18.63,0,4.97,1.36,9.25,3.82,12.04,2.04,2.31,4.99,3.81,8.8,4.47.51-1.4,1.27-2.65,2.28-3.74Z"/><path class="cls-2" d="m472.28,65.55c2.74,3.39,4.19,7.83,4.19,12.84,0,.53-.02,1.07-.05,1.61,1.05-.18,2.17-.28,3.42-.26,1.22.02,2.47.15,3.68.43,1.38-6.04,2.08-11.93,2.08-17.57s-1.15-10.06-3.24-12.68c-1-1.25-2.79-2.91-6.85-2.95-1.23-.01-2.57.13-3.99.42-4.08.83-8.52,2.18-14.11,8.73-1.08,1.29-2.28,2.41-3.56,3.33,1.51-.25,2.98-.37,4.39-.35,5.74.06,10.73,2.35,14.05,6.46Z"/><path class="cls-2" d="m421.85,109.89c1.94-3.65,4.47-7.12,7.32-10.13-.82-2.35-1.24-4.96-1.24-7.81,0-6.58,2.34-13.72,6.43-19.59,2.96-4.26,6.67-7.63,10.8-9.9-.09,0-.19,0-.28,0-3.75-.04-7.24-1.68-9.56-4.51-.42-.51-.79-1.05-1.12-1.61-.39.59-.86,1.41-1.42,2.55-2.97,6.04-6.47,17.06-12.28,35.32l-1.4,4.41c-2.86,8.74-5.72,17.08-8.38,24.79l-.05.13c-2.05,5.67-4.03,11.02-5.94,16.19-7.05,19.04-13.14,35.48-13.14,43.59,0,.44.02.81.04,1.13.43-.04.97-.12,1.62-.25.23-.11,3.62-1.86,7.87-15.11,3.37-10.51,6.04-24.31,8.62-37.65.5-2.56,1.01-5.21,1.52-7.8.64-3.31,2.15-6.25,4.37-8.5,1.54-1.57,3.34-2.72,5.28-3.41.3-.61.61-1.22.93-1.82Z"/><path class="cls-2" d="m183.12,139.1c0,4.56-1.23,9.48-3.47,14.1,2.94-1.94,6.23-2.95,9.76-3.38-1.7-3.52-2.22-7.81-1.54-12.78.58-4.27,2.08-9.28,4.46-14.91,1.71-4.83,3.49-8.83,5.06-12.38-2.14,1.65-4.8,3.13-8.27,3.83-1.05.21-2.11.32-3.15.31-4.62-.05-7.73-2.26-9.4-3.45-1.15-.82-1.36-.96-3-.98-1.38-.01-3.11.19-5.16.6-6.47,1.31-12.59,4.47-18.18,9.4-5.31,4.68-10.07,10.83-14.16,18.3-5.86,10.7-9.93,23.6-11.31,35.33,2.1-1.83,4.34-3.51,6.61-5.11,1.99-1.4,4.1-2.64,6.29-3.71-1.6-2.55-3.08-6.34-3.08-11.61,0-6.65,2.39-13.83,6.57-19.7,4.77-6.71,11.48-11.24,18.9-12.74,1.69-.34,3.37-.51,4.97-.49,10.66.11,18.1,8.07,18.1,19.37Z"/><path class="cls-2" d="m523.02,111.38c-1.14-4.73-1.07-9.11-.04-13.83.17-.76.39-1.51.66-2.26-4.06-.35-7.67-1.75-10.54-4.11-.49-.4-.95-.83-1.38-1.27l.93,11.68c.25,3.11,1.11,7.42,3.81,10.35,1.88,2.04,4.52,3.21,8.02,3.57-.6-1.34-1.12-2.72-1.46-4.13Z"/><path class="cls-2" d="m547.24,47.18l.05.08.05.08c2.12,3.67,3.66,7.23,4.63,10.74.6.1,1.2.24,1.8.42.62.19,1.22.4,1.81.63-.35-.63-.69-1.24-1.02-1.84-3.51-6.32-5.63-10.13-5.63-14.45,0-4.54,1.76-8.76,5.22-12.54,2.17-2.37,4.67-4.22,6.87-5.84-1.03,0-2.18.14-3.43.39-2.34.47-6.45,2.77-12.77,10.99-1.34,1.75-2.68,3.63-4.02,5.62,2.12.87,4.51,2.53,6.43,5.71Z"/><path class="cls-2" d="m278.9,92.7c4.82.05,9.76.34,13.89.67.43-2.12.9-4.24,1.38-6.23-2.42-.28-5.17-.49-8.12-.52-6.49-.06-12.48.74-17.8,2.38-6.38,1.97-11.82,5.19-16.16,9.58-1.06,1.07-2.09,2.16-3.08,3.25,3.01-2.83,6.53-5.1,10.4-6.69,4.26-1.75,10.45-2.53,19.48-2.44Z"/><path class="cls-2" d="m231.63,143.61c2.68-1.97,5.65-3.15,8.74-4.38-2.21-5.41-2.67-11.12-2.17-15.52.62-5.42,2.45-10.63,5.31-15.17-6.22,8.36-10.51,17.29-12.8,26.68-.94,3.86-1.43,7.35-1.65,10.32.85-.66,1.73-1.3,2.58-1.93Z"/><path class="cls-2" d="m377.07,32.73c1.42.01,2.79.13,4.11.35,1.16-.08,2.32-.13,3.48-.16,0-.25-.01-.5-.01-.75-.02-4.03,1.7-7.62,4.37-10.51,2.69-2.9,6.69-4.13,10.55-4.27.02,0,.03,0,.05,0-.38-.65-.79-1.25-1.21-1.8-2.24-2.95-4.73-4.22-8.31-4.25-4.16-.04-11.71,1.65-24.02,9.96-10.9,7.36-20.34,16.36-28.06,26.75-6.21,8.36-11.33,17.66-15.23,27.64-4.01,10.24-5.89,19.15-6.77,24.7.19-.13.38-.25.57-.37,1.64-1.04,3.5-1.61,5.41-1.82.02-.17.03-.33.04-.5.67-6.68,1.94-11.65,2.2-12.65.86-3.4,13.01-48.81,49.44-52.16,1.15-.11,2.29-.15,3.38-.14Z"/></g><path class="cls-7" d="m110.82,152.85c-.73,2.09-1.46,4.16-2.16,6.17l-.04.12c-4.96,13.61-12.31,25.46-21.27,34.26-.1.09-.19.18-.29.28-.25.41-.5.82-.75,1.24-4.19,6.95-8.33,13.92-12.97,20.57-.24.42-.49.85-.74,1.27-1.95,3.23-4.2,6.18-6.52,9.14-2.43,3.1-5.22,5.88-8.27,8.35-1.47,1.39-3,2.71-4.6,3.96,8.44-2.89,16.29-8.08,23.42-15.51,9.79-10.2,18.33-24.64,25.37-42.93v-.02c6.09-15.7,11.28-31.7,16.29-48-2.41,6.67-4.98,14-7.46,21.11Z"/><path class="cls-7" d="m210.54,180.05c-.76-2.48-1.29-5.09-1.6-7.83-.21.78-.51,1.53-.9,2.27-.6,1.84-1.63,3.43-3.09,4.77-3.27,3.94-8.07,5.96-13.13,6.19-.74.04-1.47-.1-2.2-.12-.23.01-.45.02-.67.02,0,0-.01,0-.02,0,0,0,0,0,0,0-1.07.02-2.13-.08-3.17-.27l-.02.12c-1.19,8.47.32,12.85,1.4,14.11.19.22.44.51,1.62.52.59,0,1.27-.07,2.02-.22,6.69-1.36,13.23-7.59,19.91-19-.06-.19-.12-.37-.18-.56Z"/><path class="cls-7" d="m157.64,184.99c-3.54-.04-6.81-.99-9.56-2.74-.06.37-.11.73-.17,1.1-.71,2.52-1.99,4.7-3.84,6.55-1.01.77-2.01,1.54-3.02,2.3-3.39,2.15-7.68,2.3-11.5,1.39-.04-.01-.09-.02-.13-.04,0,.21,0,.42,0,.63,0,8.27,1.71,12.37,2.73,14.08,1.26,2.11,2.37,2.29,3.59,2.3.62,0,1.31-.07,2.07-.22,8.44-1.71,17.61-11.27,25.06-25.93-.15.03-.3.06-.45.1-1.63.33-3.24.49-4.79.48Z"/><path class="cls-7" d="m482.56,112.11c.38-1.16.93-2.22,1.65-3.18l1.35-4.65c-1.47,1.68-3.13,3.18-4.89,4.55-3.08,2.4-6.18,4.67-9.52,6.68-.16.1-.33.2-.5.29-4.2,4.1-9.18,6.86-14.47,7.93-.57.12-1.13.21-1.69.29-1.47.86-2.98,1.64-4.52,2.34-2.91,1.32-5.89,2.47-8.88,3.56,1.47,2.63,1.98,5.78,1.44,9.09-.72,4.62-.09,6.79.22,7.26.13.07.69.3,1.96.31.97,0,2.08-.11,3.3-.36,9.63-1.95,20.75-11.63,29.01-25.26l2.32-3.83,1.93-.39c.09-1.64.51-3.18,1.28-4.63Z"/><path class="cls-7" d="m567.76,87.75c-.64-2.92-2.01-6.21-3.61-9.47-.13,1.53-.29,3.06-.49,4.58-.52,3.96-.98,7.96-2.09,11.81-2.28,7.92-6.73,15-13.13,20.22,0,0-.02.01-.03.02-1.1,3.27-2.45,6.45-4.03,9.48-.38.73-.79,1.46-1.24,2.17,11.38-3.35,21.7-11,30.74-22.79,1.96-2.56,3.76-5.19,5.41-7.8l-9.26,2.18-2.28-10.4Z"/><path class="cls-7" d="m269.82,168.07c-3.99-.04-7.36-.78-10.18-1.9.04,1.97-.39,3.81-1.29,5.51-.6,1.84-1.63,3.43-3.09,4.77-2.7,2.67-6.73,4.32-10.55,4.27-.97-.01-1.94-.08-2.9-.2-1.52-.19-3.08-.36-4.61-.65,2.4,4.07,6.67,6.49,14.31,6.57,1.38.01,2.86-.05,4.4-.2,12.97-1.24,24.92-11.36,32.66-19.64,2.86-3.06,5.37-6.1,7.48-8.84-5.44,4.79-11.1,7.88-16.93,9.23-3.24.75-6.37,1.11-9.29,1.08Z"/><path class="cls-6" d="m409.56,46.05c.08.57.16,1.13.25,1.7-.13-1.13-.27-2.24-.44-3.31.06.54.13,1.07.19,1.61Z"/><path class="cls-7" d="m388.14,123.73c-1.42,2.65-2.78,4.99-3.99,6.91-4.37,6.91-9.17,12.46-14.27,16.49-6.05,4.78-12.2,7.17-18.29,7.11-5.05-.05-9.78-1.85-13.67-5.2-.85-.73-1.65-1.53-2.41-2.41-2.67,2.55-6.43,3.65-10.07,3.78-.99.03-1.95-.06-2.88-.27l.06,2.2s.25,4.99,2.4,9.62c2.49,5.37,6.22,7.79,12.11,7.85h0c3.11.03,6.76-.6,10.84-1.89,8.42-2.65,16.51-8.25,24.05-16.64,6.42-7.14,12.48-16.33,18.02-27.33-.64-.03-1.27-.1-1.9-.22Z"/></g></g></svg>